<svg xmlns="http://www.w3.org/2000/svg" width="88" height="12" viewBox="0 0 88 12">
    <g fill="none" fill-rule="evenodd">
        <g>
            <g>
                <g fill="#2979FF">
                    <path d="M27.286 0c3.277 0 5.922 2.605 5.922 5.833 0 3.2-2.645 5.834-5.922 5.834-3.277 0-5.922-2.634-5.922-5.834C21.364 2.605 24.01 0 27.286 0zM13.585 0c3.277 0 5.922 2.605 5.922 5.833 0 3.2-2.645 5.834-5.922 5.834-3.277 0-5.922-2.634-5.922-5.834C7.663 2.605 10.308 0 13.585 0zM70.37.229v5.719c0 1.97 1.667 3.581 3.708 3.581 2.041 0 3.709-1.61 3.709-3.581V.228H80v5.72c0 3.165-2.645 5.719-5.922 5.719-3.277 0-5.921-2.554-5.921-5.72V.23h2.213zM48.1 0c2.705 0 4.875 2.165 4.875 4.83v6.608h-2.17V4.83c0-1.47-1.212-2.692-2.705-2.692-1.522 0-2.734 1.221-2.734 2.692v6.608h-2.17V4.83c0-1.47-1.24-2.692-2.734-2.692-1.493 0-2.705 1.221-2.705 2.692v6.608h-2.198V4.83c0-2.665 2.198-4.83 4.903-4.83 1.55 0 2.903.694 3.805 1.804C45.17.694 46.55 0 48.1 0zm8.742.229l3.535 8.38 3.536-8.38H66.3l-4.714 11.209h-2.386L54.456.228h2.386zM5.806.215v2.094c-2.001 0-3.608 1.578-3.608 3.51v5.605H0V5.819C0 2.718 2.621.215 5.806.215zm21.48 1.965c-2.041 0-3.708 1.643-3.708 3.653s1.667 3.625 3.708 3.625c2.04 0 3.708-1.614 3.708-3.625 0-2.01-1.667-3.653-3.708-3.653zm-13.701 0c-2.041 0-3.708 1.643-3.708 3.653s1.667 3.625 3.708 3.625c2.04 0 3.708-1.614 3.708-3.625 0-2.01-1.667-3.653-3.708-3.653z" transform="translate(-144 -26) translate(144 26)"/>
                </g>
                <path fill="#111418" fill-rule="nonzero" d="M82.807 2.855V.4h.84V0H81.5v.4h.84v2.455h.467zm1.7 0V1.467c0-.31-.01-.642-.032-.996h.015l.828 2.384h.412l.858-2.38h.016c-.006.048-.012.186-.019.414-.007.228-.01.412-.01.554v1.412h.448V0h-.66l-.816 2.271h-.012L84.742 0h-.658v2.855h.424z" transform="translate(-144 -26) translate(144 26)"/>
            </g>
        </g>
    </g>
</svg>
